Rokkitt Light 100-500.ufo
<glyph name="quotesingle" format="1">
  <advance width="337"/>
  <unicode hex="0027"/>
  <outline>
    <contour>
      <point x="115" y="716" type="line"/>
      <point x="225" y="716" type="line"/>
      <point x="267" y="1171" type="line"/>
      <point x="70" y="1171" type="line"/>
    </contour>
  </outline>
</glyph>
<glyph name="parenleft" format="1">
  <advance width="522"/>
  <unicode hex="0028"/>
  <outline>
    <contour>
      <point x="431" y="-114" type="curve"/>
      <point x="433" y="-4" type="line"/>
      <point x="315" y="46"/>
      <point x="256" y="288"/>
      <point x="256" y="531" type="curve" smooth="yes"/>
      <point x="256" y="773"/>
      <point x="315" y="1016"/>
      <point x="433" y="1065" type="curve"/>
      <point x="431" y="1174" type="line"/>
      <point x="178" y="1086"/>
      <point x="52" y="807"/>
      <point x="52" y="529" type="curve" smooth="yes"/>
      <point x="52" y="250"/>
      <point x="178" y="-28"/>
    </contour>
  </outline>
</glyph>
<glyph name="plus" format="1">
  <advance width="1047"/>
  <unicode hex="002B"/>
  <outline>
    <contour>
      <point x="461" y="93" type="line"/>
      <point x="585" y="93" type="line"/>
      <point x="585" y="485" type="line"/>
      <point x="990" y="485" type="line"/>
      <point x="990" y="602" type="line"/>
      <point x="585" y="602" type="line"/>
      <point x="585" y="994" type="line"/>
      <point x="461" y="994" type="line"/>
      <point x="461" y="602" type="line"/>
      <point x="57" y="602" type="line"/>
      <point x="57" y="485" type="line"/>
      <point x="461" y="485" type="line"/>
    </contour>
  </outline>
</glyph>
<glyph name="nine" format="1">
  <advance width="1048"/>
  <unicode hex="0039"/>
  <outline>
    <contour>
      <point x="452" y="-71" type="line"/>
      <point x="863" y="554" type="line"/>
      <point x="901" y="612"/>
      <point x="941" y="704"/>
      <point x="941" y="783" type="curve" smooth="yes"/>
      <point x="941" y="1006"/>
      <point x="780" y="1174"/>
      <point x="557" y="1174" type="curve" smooth="yes"/>
      <point x="334" y="1174"/>
      <point x="167" y="1006"/>
      <point x="167" y="783" type="curve" smooth="yes"/>
      <point x="167" y="558"/>
      <point x="347" y="414"/>
      <point x="521" y="416" type="curve" smooth="yes"/>
      <point x="567" y="416"/>
      <point x="613" y="426"/>
      <point x="655" y="448" type="curve"/>
      <point x="352" y="3" type="line"/>
    </contour>
    <contour>
      <point x="553" y="524" type="curve" smooth="yes"/>
      <point x="403" y="524"/>
      <point x="303" y="630"/>
      <point x="303" y="783" type="curve" smooth="yes"/>
      <point x="303" y="938"/>
      <point x="417" y="1054"/>
      <point x="557" y="1054" type="curve" smooth="yes"/>
      <point x="697" y="1054"/>
      <point x="815" y="944"/>
      <point x="805" y="779" type="curve" smooth="yes"/>
      <point x="796" y="636"/>
      <point x="693" y="524"/>
    </contour>
  </outline>
</glyph>
<glyph name="A" format="1">
  <advance width="1305"/>
  <unicode hex="0041"/>
  <outline>
    <contour>
      <point x="665" y="1153" type="move" name="top"/>
    </contour>
    <contour>
      <point x="997" y="0" type="move" name="ogonek"/>
    </contour>
    <contour>
      <point x="38" y="0" type="line"/>
      <point x="495" y="0" type="line"/>
      <point x="495" y="116" type="line"/>
      <point x="349" y="116" type="line"/>
      <point x="445" y="424" type="line"/>
      <point x="859" y="424" type="line"/>
      <point x="958" y="116" type="line"/>
      <point x="810" y="116" type="line"/>
      <point x="810" y="0" type="line"/>
      <point x="1267" y="0" type="line"/>
      <point x="1267" y="116" type="line"/>
      <point x="1124" y="116" type="line"/>
      <point x="802" y="1037" type="line"/>
      <point x="913" y="1037" type="line"/>
      <point x="913" y="1153" type="line"/>
      <point x="383" y="1153" type="line"/>
      <point x="383" y="1037" type="line"/>
      <point x="503" y="1037" type="line"/>
      <point x="183" y="116" type="line"/>
      <point x="38" y="116" type="line"/>
    </contour>
    <contour>
      <point x="475" y="545" type="line"/>
      <point x="646" y="1037" type="line"/>
      <point x="660" y="1037" type="line"/>
      <point x="829" y="545" type="line"/>
    </contour>
  </outline>
</glyph>
<glyph name="H" format="1">
  <advance width="1417"/>
  <unicode hex="0048"/>
  <outline>
    <contour>
      <point x="714" y="1153" type="move" name="top"/>
    </contour>
    <contour>
      <point x="719" y="0" type="move" name="bot"/>
    </contour>
    <contour>
      <point x="350" y="538" type="line"/>
      <point x="1083" y="538" type="line"/>
      <point x="1082" y="667" type="line"/>
      <point x="349" y="667" type="line"/>
    </contour>
    <component base="uc_main_stem" xOffset="752"/>
    <component base="uc_main_stem" xOffset="7"/>
  </outline>
</glyph>
<glyph name="L" format="1">
  <advance width="1084"/>
  <unicode hex="004C"/>
  <outline>
    <contour>
      <point x="647" y="1153" type="move" name="top"/>
    </contour>
    <contour>
      <point x="562" y="0" type="move" name="bot"/>
    </contour>
    <contour>
      <point x="341" y="0" type="line"/>
      <point x="1002" y="0" type="line"/>
      <point x="1002" y="452" type="line"/>
      <point x="857" y="452" type="line"/>
      <point x="857" y="116" type="line"/>
      <point x="341" y="116" type="line"/>
    </contour>
    <component base="uc_main_stem" xOffset="7"/>
  </outline>
</glyph>
<glyph name="M" format="1">
  <advance width="1690"/>
  <unicode hex="004D"/>
  <outline>
    <contour>
      <point x="858" y="1153" type="move" name="top"/>
    </contour>
    <contour>
      <point x="122" y="0" type="line"/>
      <point x="537" y="0" type="line"/>
      <point x="537" y="116" type="line"/>
      <point x="404" y="116" type="line"/>
      <point x="404" y="1022" type="line"/>
      <point x="816" y="45" type="line"/>
      <point x="858" y="45" type="line"/>
      <point x="1273" y="1023" type="line"/>
      <point x="1273" y="116" type="line"/>
      <point x="1140" y="116" type="line"/>
      <point x="1140" y="0" type="line"/>
      <point x="1568" y="0" type="line"/>
      <point x="1568" y="116" type="line"/>
      <point x="1421" y="116" type="line"/>
      <point x="1421" y="1037" type="line"/>
      <point x="1568" y="1037" type="line"/>
      <point x="1568" y="1153" type="line"/>
      <point x="1178" y="1153" type="line"/>
      <point x="840" y="345" type="line"/>
      <point x="507" y="1153" type="line"/>
      <point x="122" y="1153" type="line"/>
      <point x="122" y="1037" type="line"/>
      <point x="270" y="1037" type="line"/>
      <point x="270" y="116" type="line"/>
      <point x="122" y="116" type="line"/>
    </contour>
  </outline>
</glyph>
<glyph name="asciicircum" format="1">
  <advance width="826"/>
  <unicode hex="005E"/>
  <outline>
    <contour>
      <point x="38" y="605" type="line"/>
      <point x="189" y="605" type="line"/>
      <point x="415" y="1040" type="line"/>
      <point x="637" y="605" type="line"/>
      <point x="788" y="605" type="line"/>
      <point x="492" y="1171" type="line"/>
      <point x="339" y="1171" type="line"/>
    </contour>
  </outline>
</glyph>
<glyph name="f" format="1">
  <advance width="659"/>
  <unicode hex="0066"/>
  <outline>
    <contour>
      <point x="83" y="0" type="line"/>
      <point x="534" y="0" type="line"/>
      <point x="534" y="116" type="line"/>
      <point x="372" y="116" type="line"/>
      <point x="372" y="688" type="line"/>
      <point x="535" y="688" type="line"/>
      <point x="535" y="804" type="line"/>
      <point x="372" y="804" type="line"/>
      <point x="372" y="934" type="line" smooth="yes"/>
      <point x="372" y="1013"/>
      <point x="422" y="1054"/>
      <point x="484" y="1054" type="curve" smooth="yes"/>
      <point x="532" y="1054"/>
      <point x="568" y="1026"/>
      <point x="585" y="963" type="curve"/>
      <point x="695" y="996" type="line"/>
      <point x="672" y="1117"/>
      <point x="603" y="1171"/>
      <point x="475" y="1171" type="curve" smooth="yes"/>
      <point x="327" y="1171"/>
      <point x="224" y="1084"/>
      <point x="224" y="943" type="curve" smooth="yes"/>
      <point x="224" y="804" type="line"/>
      <point x="95" y="804" type="line"/>
      <point x="95" y="688" type="line"/>
      <point x="224" y="688" type="line"/>
      <point x="224" y="116" type="line"/>
      <point x="83" y="116" type="line"/>
    </contour>
  </outline>
</glyph>
<glyph name="i" format="1">
  <advance width="603"/>
  <unicode hex="0069"/>
  <outline>
    <contour>
      <point x="345" y="0" type="move" name="ogonek"/>
    </contour>
    <contour>
      <point x="96" y="0" type="line"/>
      <point x="548" y="0" type="line"/>
      <point x="548" y="116" type="line"/>
      <point x="405" y="116" type="line"/>
      <point x="405" y="633" type="line"/>
      <point x="405" y="804" type="line"/>
      <point x="93" y="804" type="line"/>
      <point x="93" y="688" type="line"/>
      <point x="257" y="688" type="line"/>
      <point x="257" y="116" type="line"/>
      <point x="96" y="116" type="line"/>
    </contour>
    <contour>
      <point x="331" y="979" type="curve" smooth="yes"/>
      <point x="384" y="979"/>
      <point x="421" y="1013"/>
      <point x="421" y="1066" type="curve" smooth="yes"/>
      <point x="421" y="1119"/>
      <point x="384" y="1152"/>
      <point x="331" y="1152" type="curve" smooth="yes"/>
      <point x="272" y="1152"/>
      <point x="238" y="1119"/>
      <point x="238" y="1066" type="curve" smooth="yes"/>
      <point x="238" y="1013"/>
      <point x="272" y="979"/>
    </contour>
  </outline>
</glyph>
<glyph name="o" format="1">
  <advance width="1001"/>
  <unicode hex="006F"/>
  <outline>
    <contour>
      <point x="500" y="804" type="move" name="top"/>
    </contour>
    <contour>
      <point x="499" y="102" type="curve" smooth="yes"/>
      <point x="341" y="103"/>
      <point x="230" y="227"/>
      <point x="230" y="401" type="curve" smooth="yes"/>
      <point x="230" y="577"/>
      <point x="341" y="702"/>
      <point x="499" y="702" type="curve" smooth="yes"/>
      <point x="658" y="702"/>
      <point x="771" y="577"/>
      <point x="771" y="401" type="curve" smooth="yes"/>
      <point x="771" y="227"/>
      <point x="658" y="103"/>
    </contour>
    <contour>
      <point x="499" y="-22" type="curve" smooth="yes"/>
      <point x="750" y="-22"/>
      <point x="927" y="154"/>
      <point x="927" y="402" type="curve" smooth="yes"/>
      <point x="927" y="650"/>
      <point x="751" y="826"/>
      <point x="501" y="826" type="curve" smooth="yes"/>
      <point x="251" y="826"/>
      <point x="74" y="652"/>
      <point x="74" y="406" type="curve" smooth="yes"/>
      <point x="74" y="155"/>
      <point x="250" y="-22"/>
    </contour>
  </outline>
</glyph>
<glyph name="p" format="1">
  <advance width="1068"/>
  <unicode hex="0070"/>
  <outline>
    <contour>
      <point x="610" y="805" type="move" name="top"/>
    </contour>
    <component base="lc_bowl_right" xOffset="-8"/>
    <component base="lc_descender_stem" xOffset="-2"/>
  </outline>
</glyph>
<glyph name="z" format="1">
  <advance width="877"/>
  <unicode hex="007A"/>
  <outline>
    <contour>
      <point x="453" y="804" type="move" name="top"/>
    </contour>
    <contour>
      <point x="108" y="0" type="line"/>
      <point x="788" y="0" type="line"/>
      <point x="788" y="276" type="line"/>
      <point x="660" y="276" type="line"/>
      <point x="660" y="116" type="line"/>
      <point x="288" y="116" type="line"/>
      <point x="763" y="682" type="line"/>
      <point x="763" y="804" type="line"/>
      <point x="109" y="804" type="line"/>
      <point x="109" y="536" type="line"/>
      <point x="230" y="536" type="line"/>
      <point x="230" y="688" type="line"/>
      <point x="581" y="688" type="line"/>
      <point x="108" y="116" type="line"/>
    </contour>
  </outline>
</glyph>
<glyph name="braceleft" format="1">
  <advance width="528"/>
  <unicode hex="007B"/>
  <outline>
    <contour>
      <point x="411" y="-197" type="curve" smooth="yes"/>
      <point x="485" y="-197" type="line"/>
      <point x="485" y="-78" type="line"/>
      <point x="331" y="-78"/>
      <point x="320" y="-41"/>
      <point x="320" y="86" type="curve" smooth="yes"/>
      <point x="320" y="393"/>
      <point x="275" y="470"/>
      <point x="212" y="507" type="curve"/>
      <point x="275" y="544"/>
      <point x="320" y="621"/>
      <point x="320" y="928" type="curve" smooth="yes"/>
      <point x="320" y="1055"/>
      <point x="331" y="1092"/>
      <point x="485" y="1092" type="curve"/>
      <point x="485" y="1211" type="line"/>
      <point x="411" y="1211" type="line" smooth="yes"/>
      <point x="191" y="1211"/>
      <point x="171" y="1092"/>
      <point x="171" y="806" type="curve" smooth="yes"/>
      <point x="171" y="643"/>
      <point x="160" y="539"/>
      <point x="23" y="539" type="curve"/>
      <point x="23" y="475" type="line"/>
      <point x="160" y="475"/>
      <point x="171" y="371"/>
      <point x="171" y="208" type="curve" smooth="yes"/>
      <point x="171" y="-78"/>
      <point x="191" y="-197"/>
    </contour>
  </outline>
</glyph>
<glyph name="braceright" format="1">
  <advance width="588"/>
  <unicode hex="007D"/>
  <outline>
    <contour>
      <point x="108" y="-197" type="line"/>
      <point x="182" y="-197" type="line" smooth="yes"/>
      <point x="402" y="-197"/>
      <point x="422" y="-78"/>
      <point x="422" y="208" type="curve" smooth="yes"/>
      <point x="422" y="371"/>
      <point x="433" y="475"/>
      <point x="570" y="475" type="curve"/>
      <point x="570" y="539" type="line"/>
      <point x="433" y="539"/>
      <point x="422" y="643"/>
      <point x="422" y="806" type="curve" smooth="yes"/>
      <point x="422" y="1092"/>
      <point x="402" y="1211"/>
      <point x="182" y="1211" type="curve" smooth="yes"/>
      <point x="108" y="1211" type="line"/>
      <point x="108" y="1092" type="line"/>
      <point x="262" y="1092"/>
      <point x="273" y="1055"/>
      <point x="273" y="928" type="curve" smooth="yes"/>
      <point x="273" y="621"/>
      <point x="318" y="544"/>
      <point x="381" y="507" type="curve"/>
      <point x="318" y="470"/>
      <point x="273" y="393"/>
      <point x="273" y="86" type="curve" smooth="yes"/>
      <point x="273" y="-41"/>
      <point x="262" y="-78"/>
      <point x="108" y="-78" type="curve"/>
    </contour>
  </outline>
</glyph>
<glyph name="cent" format="1">
  <advance width="939"/>
  <unicode hex="00A2"/>
  <outline>
    <contour>
      <point x="241" y="-351" type="line"/>
      <point x="757" y="1122" type="line"/>
      <point x="701" y="1141" type="line"/>
      <point x="186" y="-333" type="line"/>
    </contour>
    <component base="c"/>
  </outline>
</glyph>
<glyph name="section" format="1">
  <advance width="877"/>
  <unicode hex="00A7"/>
  <outline>
    <contour>
      <point x="481" y="-306" type="curve" smooth="yes"/>
      <point x="648" y="-306"/>
      <point x="781" y="-190"/>
      <point x="781" y="-21" type="curve" smooth="yes"/>
      <point x="781" y="66"/>
      <point x="737" y="136"/>
      <point x="650" y="187" type="curve"/>
      <point x="756" y="254"/>
      <point x="809" y="336"/>
      <point x="809" y="433" type="curve" smooth="yes"/>
      <point x="809" y="739"/>
      <point x="232" y="656"/>
      <point x="257" y="927" type="curve" smooth="yes"/>
      <point x="266" y="1026"/>
      <point x="358" y="1068"/>
      <point x="466" y="1068" type="curve" smooth="yes"/>
      <point x="569" y="1068"/>
      <point x="666" y="1032"/>
      <point x="730" y="962" type="curve"/>
      <point x="730" y="832" type="line"/>
      <point x="816" y="832" type="line"/>
      <point x="816" y="1152" type="line"/>
      <point x="730" y="1152" type="line"/>
      <point x="730" y="1054" type="line"/>
      <point x="672" y="1133"/>
      <point x="573" y="1185"/>
      <point x="448" y="1185" type="curve" smooth="yes"/>
      <point x="276" y="1185"/>
      <point x="118" y="1077"/>
      <point x="118" y="913" type="curve" smooth="yes"/>
      <point x="118" y="815"/>
      <point x="161" y="740"/>
      <point x="248" y="688" type="curve"/>
      <point x="161" y="630"/>
      <point x="88" y="566"/>
      <point x="88" y="445" type="curve" smooth="yes"/>
      <point x="88" y="130"/>
      <point x="653" y="228"/>
      <point x="640" y="-53" type="curve" smooth="yes"/>
      <point x="636" y="-133"/>
      <point x="553" y="-183"/>
      <point x="468" y="-183" type="curve" smooth="yes"/>
      <point x="364" y="-183"/>
      <point x="276" y="-159"/>
      <point x="207" y="-81" type="curve"/>
      <point x="207" y="55" type="line"/>
      <point x="121" y="55" type="line"/>
      <point x="121" y="-265" type="line"/>
      <point x="207" y="-265" type="line"/>
      <point x="207" y="-175" type="line"/>
      <point x="264" y="-253"/>
      <point x="365" y="-306"/>
    </contour>
    <contour>
      <point x="560" y="234" type="curve"/>
      <point x="321" y="332"/>
      <point x="213" y="338"/>
      <point x="213" y="476" type="curve" smooth="yes"/>
      <point x="213" y="563"/>
      <point x="265" y="601"/>
      <point x="331" y="640" type="curve"/>
      <point x="554" y="543"/>
      <point x="685" y="534"/>
      <point x="685" y="402" type="curve" smooth="yes"/>
      <point x="685" y="333"/>
      <point x="643" y="277"/>
    </contour>
  </outline>
</glyph>
<glyph name="ae" format="1">
  <advance width="1417"/>
  <unicode hex="00E6"/>
  <outline>
    <contour>
      <point x="342" y="-22" type="curve" smooth="yes"/>
      <point x="453" y="-22"/>
      <point x="581" y="13"/>
      <point x="687" y="103" type="curve"/>
      <point x="757" y="20"/>
      <point x="886" y="-22"/>
      <point x="1015" y="-22" type="curve" smooth="yes"/>
      <point x="1161" y="-22"/>
      <point x="1267" y="36"/>
      <point x="1341" y="137" type="curve"/>
      <point x="1262" y="225" type="line"/>
      <point x="1208" y="155"/>
      <point x="1138" y="107"/>
      <point x="1018" y="107" type="curve" smooth="yes"/>
      <point x="903" y="107"/>
      <point x="822" y="163"/>
      <point x="783" y="254" type="curve" smooth="yes"/>
      <point x="770" y="287"/>
      <point x="761" y="324"/>
      <point x="759" y="365" type="curve"/>
      <point x="1367" y="365" type="line"/>
      <point x="1367" y="642"/>
      <point x="1229" y="826"/>
      <point x="1015" y="826" type="curve" smooth="yes"/>
      <point x="911" y="826"/>
      <point x="779" y="792"/>
      <point x="698" y="640" type="curve"/>
      <point x="657" y="771"/>
      <point x="537" y="826"/>
      <point x="419" y="826" type="curve" smooth="yes"/>
      <point x="309" y="826"/>
      <point x="186" y="787"/>
      <point x="103" y="731" type="curve"/>
      <point x="156" y="634" type="line"/>
      <point x="225" y="673"/>
      <point x="334" y="705"/>
      <point x="403" y="705" type="curve" smooth="yes"/>
      <point x="545" y="705"/>
      <point x="594" y="653"/>
      <point x="601" y="494" type="curve"/>
      <point x="602" y="480"/>
      <point x="602" y="466"/>
      <point x="602" y="450" type="curve"/>
      <point x="534" y="463"/>
      <point x="473" y="470"/>
      <point x="412" y="470" type="curve" smooth="yes"/>
      <point x="181" y="470"/>
      <point x="65" y="387"/>
      <point x="65" y="221" type="curve" smooth="yes"/>
      <point x="66" y="79"/>
      <point x="192" y="-22"/>
    </contour>
    <contour>
      <point x="344" y="93" type="curve" smooth="yes"/>
      <point x="273" y="93"/>
      <point x="206" y="149"/>
      <point x="206" y="221" type="curve" smooth="yes"/>
      <point x="206" y="342"/>
      <point x="310" y="372"/>
      <point x="423" y="372" type="curve" smooth="yes"/>
      <point x="485" y="372"/>
      <point x="549" y="363"/>
      <point x="601" y="356" type="curve"/>
      <point x="646" y="197" type="line"/>
      <point x="569" y="130"/>
      <point x="480" y="93"/>
    </contour>
    <contour>
      <point x="763" y="467" type="line"/>
      <point x="780" y="601"/>
      <point x="868" y="695"/>
      <point x="1006" y="695" type="curve" smooth="yes"/>
      <point x="1141" y="695"/>
      <point x="1204" y="603"/>
      <point x="1224" y="467" type="curve"/>
    </contour>
  </outline>
</glyph>
<glyph name="uni0307" format="1">
  <advance width="535"/>
  <unicode hex="0307"/>
  <outline>
    <contour>
      <point x="270" y="805" type="move" name="_top"/>
    </contour>
    <contour>
      <point x="268" y="950" type="curve" smooth="yes"/>
      <point x="325" y="950"/>
      <point x="360" y="992"/>
      <point x="359" y="1038" type="curve" smooth="yes"/>
      <point x="359" y="1093"/>
      <point x="317" y="1125"/>
      <point x="268" y="1125" type="curve" smooth="yes"/>
      <point x="219" y="1125"/>
      <point x="176" y="1088"/>
      <point x="177" y="1038" type="curve" smooth="yes"/>
      <point x="177" y="990"/>
      <point x="220" y="950"/>
    </contour>
  </outline>
</glyph>
<glyph name="pi" format="1">
  <advance width="1121"/>
  <unicode hex="03C0"/>
  <outline>
    <contour>
      <point x="859" y="-13" type="curve" smooth="yes"/>
      <point x="918" y="-13"/>
      <point x="968" y="5"/>
      <point x="994" y="30" type="curve"/>
      <point x="994" y="128" type="line"/>
      <point x="973" y="120"/>
      <point x="943" y="112"/>
      <point x="912" y="112" type="curve" smooth="yes"/>
      <point x="864" y="112"/>
      <point x="827" y="141"/>
      <point x="827" y="226" type="curve" smooth="yes"/>
      <point x="827" y="308"/>
      <point x="832" y="512"/>
      <point x="845" y="663" type="curve"/>
      <point x="1025" y="663" type="line"/>
      <point x="1025" y="804" type="line"/>
      <point x="347" y="804" type="line" smooth="yes"/>
      <point x="166" y="804"/>
      <point x="110" y="728"/>
      <point x="110" y="563" type="curve"/>
      <point x="183" y="563" type="line"/>
      <point x="192" y="621"/>
      <point x="222" y="663"/>
      <point x="283" y="663" type="curve" smooth="yes"/>
      <point x="356" y="663" type="line"/>
      <point x="308" y="293" type="line" smooth="yes"/>
      <point x="287" y="128"/>
      <point x="186" y="82"/>
      <point x="119" y="82" type="curve"/>
      <point x="119" y="0" type="line"/>
      <point x="383" y="0"/>
      <point x="436" y="77"/>
      <point x="444" y="244" type="curve" smooth="yes"/>
      <point x="464" y="663" type="line"/>
      <point x="729" y="663" type="line"/>
      <point x="702" y="504"/>
      <point x="676" y="281"/>
      <point x="676" y="174" type="curve" smooth="yes"/>
      <point x="676" y="37"/>
      <point x="745" y="-13"/>
    </contour>
  </outline>
</glyph>
<glyph name="quotesinglbase" format="1">
  <advance width="389"/>
  <unicode hex="201A"/>
  <outline>
    <contour>
      <point x="82" y="-237" type="line"/>
      <point x="234" y="-240"/>
      <point x="298" y="-162"/>
      <point x="299" y="0" type="curve" smooth="yes"/>
      <point x="299" y="211" type="line"/>
      <point x="82" y="211" type="line"/>
      <point x="82" y="0" type="line"/>
      <point x="193" y="0" type="line"/>
      <point x="194" y="-100"/>
      <point x="165" y="-132"/>
      <point x="82" y="-150" type="curve"/>
    </contour>
  </outline>
</glyph>
<glyph name="approxequal" format="1">
  <advance width="1149"/>
  <unicode hex="2248"/>
  <outline>
    <contour>
      <point x="793" y="135" type="curve" smooth="yes"/>
      <point x="954" y="135"/>
      <point x="1013" y="304"/>
      <point x="1034" y="493" type="curve"/>
      <point x="911" y="493" type="line"/>
      <point x="898" y="379"/>
      <point x="876" y="256"/>
      <point x="795" y="256" type="curve" smooth="yes"/>
      <point x="671" y="256"/>
      <point x="621" y="493"/>
      <point x="350" y="493" type="curve" smooth="yes"/>
      <point x="182" y="493"/>
      <point x="130" y="316"/>
      <point x="113" y="135" type="curve"/>
      <point x="233" y="135" type="line"/>
      <point x="244" y="262"/>
      <point x="264" y="372"/>
      <point x="362" y="372" type="curve" smooth="yes"/>
      <point x="477" y="372"/>
      <point x="654" y="135"/>
    </contour>
    <contour>
      <point x="793" y="571" type="curve" smooth="yes"/>
      <point x="954" y="571"/>
      <point x="1013" y="740"/>
      <point x="1034" y="929" type="curve"/>
      <point x="911" y="929" type="line"/>
      <point x="898" y="815"/>
      <point x="876" y="692"/>
      <point x="795" y="692" type="curve" smooth="yes"/>
      <point x="671" y="692"/>
      <point x="613" y="929"/>
      <point x="350" y="929" type="curve" smooth="yes"/>
      <point x="182" y="929"/>
      <point x="130" y="752"/>
      <point x="113" y="571" type="curve"/>
      <point x="233" y="571" type="line"/>
      <point x="248" y="730"/>
      <point x="288" y="809"/>
      <point x="353" y="809" type="curve" smooth="yes"/>
      <point x="521" y="809"/>
      <point x="660" y="571"/>
    </contour>
  </outline>
</glyph>
